<svg xmlns="http://www.w3.org/2000/svg" viewBox="0 0 24 24" fill="none" stroke="#007bff" stroke-width="2" stroke-linecap="round" stroke-linejoin="round"><path d="M3 12c.83.5 1.83.83 3 .83s2.17-.33 3-.83c.83-.5 1.83-.83 3-.83s2.17.33 3 .83c.83.5 1.83.83 3 .83s2.17-.33 3-.83"></path><path d="M3 6c.83.5 1.83.83 3 .83s2.17-.33 3-.83C9.83 5.5 10.83 5.17 12 5.17s2.17.33 3 .83c.83.5 1.83.83 3 .83s2.17-.33 3-.83"></path><path d="M3 18c.83.5 1.83.83 3 .83s2.17-.33 3-.83c.83-.5 1.83-.83 3-.83s2.17.33 3 .83c.83.5 1.83.83 3 .83s2.17-.33 3-.83"></path></svg>
